<svg xmlns="http://www.w3.org/2000/svg" viewBox="0 0 32 32">
  <rect width="32" height="32" rx="6" fill="#C0674B"/>
  <rect x="3" y="3" width="4" height="3" rx="1" fill="#FDF6EE" opacity="0.75"/>
  <rect x="10" y="3" width="4" height="3" rx="1" fill="#FDF6EE" opacity="0.75"/>
  <rect x="17" y="3" width="4" height="3" rx="1" fill="#FDF6EE" opacity="0.75"/>
  <rect x="24" y="3" width="4" height="3" rx="1" fill="#FDF6EE" opacity="0.75"/>
  <rect x="3" y="26" width="4" height="3" rx="1" fill="#FDF6EE" opacity="0.75"/>
  <rect x="10" y="26" width="4" height="3" rx="1" fill="#FDF6EE" opacity="0.75"/>
  <rect x="17" y="26" width="4" height="3" rx="1" fill="#FDF6EE" opacity="0.75"/>
  <rect x="24" y="26" width="4" height="3" rx="1" fill="#FDF6EE" opacity="0.75"/>
  <path d="M16 22 C14 20 7 16 7 11.5 C7 9 9 7.5 11.5 8.5 C13.2 9.2 15 11 16 12 C17 11 18.8 9.2 20.5 8.5 C23 7.5 25 9 25 11.5 C25 16 18 20 16 22 Z" fill="#FDF6EE"/>
</svg>